<svg width="24" height="25" viewBox="0 0 24 25" fill="none" xmlns="http://www.w3.org/2000/svg">
<path d="M23 11.58C23 11.0277 22.5523 10.58 22 10.58C21.4477 10.58 21 11.0277 21 11.58H23ZM22 12.5L23 12.5006V12.5H22ZM15.663 4.27342C16.1675 4.49819 16.7586 4.27146 16.9834 3.76699C17.2082 3.26251 16.9815 2.67134 16.477 2.44656L15.663 4.27342ZM22.7075 5.20674C23.0978 4.81602 23.0975 4.18286 22.7068 3.79253C22.316 3.4022 21.6829 3.40251 21.2925 3.79323L22.7075 5.20674ZM12 14.51L11.2929 15.2171C11.4805 15.4047 11.7349 15.5101 12.0002 15.51C12.2656 15.5099 12.52 15.4044 12.7075 15.2167L12 14.51ZM9.70711 10.8029C9.31658 10.4124 8.68342 10.4124 8.29289 10.8029C7.90237 11.1934 7.90237 11.8266 8.29289 12.2171L9.70711 10.8029ZM21 11.58V12.5H23V11.58H21ZM21 12.4994C20.9989 14.4402 20.3704 16.3286 19.2084 17.8831L20.8103 19.0806C22.2305 17.1807 22.9986 14.8726 23 12.5006L21 12.4994ZM19.2084 17.8831C18.0463 19.4375 16.413 20.5746 14.5518 21.1249L15.1189 23.0428C17.3936 22.3703 19.39 20.9804 20.8103 19.0806L19.2084 17.8831ZM14.5518 21.1249C12.6907 21.6752 10.7015 21.6091 8.88102 20.9365L8.18791 22.8126C10.413 23.6346 12.8442 23.7154 15.1189 23.0428L14.5518 21.1249ZM8.88102 20.9365C7.06051 20.264 5.50618 19.0209 4.44986 17.3928L2.77205 18.4813C4.06311 20.4713 5.96284 21.9906 8.18791 22.8126L8.88102 20.9365ZM4.44986 17.3928C3.39353 15.7646 2.89181 13.8387 3.0195 11.9021L1.02384 11.7705C0.867764 14.1374 1.48099 16.4914 2.77205 18.4813L4.44986 17.3928ZM3.0195 11.9021C3.1472 9.96552 3.89748 8.12211 5.15845 6.64678L3.6381 5.34734C2.09692 7.15052 1.17991 9.40358 1.02384 11.7705L3.0195 11.9021ZM5.15845 6.64678C6.41941 5.17145 8.1235 4.14326 10.0166 3.71555L9.5758 1.76472C7.26206 2.28748 5.17928 3.54416 3.6381 5.34734L5.15845 6.64678ZM10.0166 3.71555C11.9096 3.28783 13.8902 3.48352 15.663 4.27342L16.477 2.44656C14.3103 1.48113 11.8895 1.24196 9.5758 1.76472L10.0166 3.71555ZM21.2925 3.79323L11.2925 13.8032L12.7075 15.2167L22.7075 5.20674L21.2925 3.79323ZM12.7071 13.8029L9.70711 10.8029L8.29289 12.2171L11.2929 15.2171L12.7071 13.8029Z" fill="#3D2219"/>
</svg>
