<svg width="74" height="74" viewBox="0 0 74 74" fill="none" xmlns="http://www.w3.org/2000/svg">
<mask id="mask0_1_29" style="mask-type:luminance" maskUnits="userSpaceOnUse" x="0" y="0" width="74" height="74">
<path d="M0.737244 0H73.8809V73.1055H0.737244V0Z" fill="white"/>
</mask>
<g mask="url(#mask0_1_29)">
<path d="M72.2408 48.7779C71.4752 48.7779 70.8562 48.156 70.8562 47.3904V4.87235L47.3267 28.3989C46.784 28.9416 45.9069 28.9416 45.3671 28.3989C44.8244 27.8592 44.8244 26.9821 45.3671 26.4394L71.2611 0.545449C71.6571 0.149428 72.2526 0.0291553 72.7718 0.2433C73.2881 0.460379 73.6284 0.964938 73.6284 1.52524V47.3904C73.6284 48.156 73.0065 48.7779 72.2408 48.7779ZM2.21255 72.9381C1.44691 72.9381 0.827942 72.3192 0.827942 71.5535V23.2272C0.827942 22.6669 1.16529 22.1623 1.68159 21.9482C2.20082 21.7341 2.79631 21.8514 3.19234 22.2474L27.3555 46.4106C27.8982 46.9533 27.8982 47.8304 27.3555 48.3701C26.8157 48.9128 25.9357 48.9128 25.3959 48.3701L3.60009 26.5743V71.5535C3.60009 72.3192 2.97819 72.9381 2.21255 72.9381ZM72.2408 72.9381C71.8859 72.9381 71.5309 72.8032 71.2611 72.5333L1.23276 2.50502C0.693001 1.96526 0.693001 1.08521 1.23276 0.545449C1.77546 0.00275382 2.65257 0.00275382 3.19234 0.545449L73.2206 70.5737C73.7633 71.1135 73.7633 71.9906 73.2206 72.5333C72.9507 72.8032 72.5958 72.9381 72.2408 72.9381Z" fill="black"/>
</g>
</svg>
