<svg width="197" height="187" viewBox="0 0 197 187" fill="none" xmlns="http://www.w3.org/2000/svg">
<path d="M91.9704 85.7811C90.0295 67.1715 86.1088 48.7489 80.2876 30.8888C88.2431 38.3521 91.9293 49.0262 93.7799 59.5154C95.6305 70.0046 95.9269 80.737 98.4568 91.0968C101.295 102.718 106.957 113.705 114.875 122.95C110.142 117.407 101.582 115.044 97.3094 108.978C92.8289 102.617 92.7356 93.1193 91.9704 85.7811Z" stroke="black" stroke-width="0.686458" stroke-miterlimit="10" stroke-linecap="round" stroke-linejoin="round"/>
<path d="M64.2212 104.986C56.8054 103.706 49.0096 102.921 42.6427 99.0783C37.8867 96.2082 34.3565 91.876 30.5829 87.8958C22.1645 79.0159 12.1047 71.5511 1.00488 65.9495C22.2056 72.1513 46.8403 83.5152 69.1137 94.1295C75.4038 97.127 81.2945 100.823 87.1673 104.51C92.9758 108.156 114.576 120.379 121.025 127.558C105.32 121.761 81.3535 107.943 64.2212 104.986Z" stroke="black" stroke-width="0.686458" stroke-miterlimit="10" stroke-linecap="round" stroke-linejoin="round"/>
<path d="M128.05 127.435C125.363 120.135 124.755 112.319 123.77 104.64C121.62 87.88 117.568 71.3412 111.707 55.4061C125.829 62.031 141.033 69.7027 147.288 83.4631C150.434 90.3839 150.91 98.1494 150.423 105.677C150.051 111.42 149.147 117.131 147.721 122.723C146.561 127.27 146.623 139.045 140.699 140.558C134.101 142.243 129.722 131.973 128.05 127.435Z" stroke="black" stroke-width="0.686458" stroke-miterlimit="10" stroke-linecap="round" stroke-linejoin="round"/>
<path d="M15.1748 0.551758C27.6452 9.83843 42.6769 16.4171 52.4859 28.2518C58.0586 34.9755 61.5828 42.995 65.0391 50.9028C66.9964 55.3808 82.3872 83.7912 74.263 84.225C70.0482 84.4504 57.81 72.9237 54.2693 70.4809C47.7038 65.9517 20.9192 14.1436 15.1748 0.551758Z" stroke="black" stroke-width="0.686458" stroke-miterlimit="10" stroke-linecap="round" stroke-linejoin="round"/>
<path d="M35.8521 27.7151C49.2511 45.8674 62.6493 64.0198 76.0483 82.1729C83.0132 91.6089 90.0199 101.093 98.5047 109.322C106.303 116.887 115.24 123.283 124.037 129.777C147.901 147.394 171.008 165.961 192.919 185.749" stroke="black" stroke-width="0.686458" stroke-miterlimit="10" stroke-linecap="round" stroke-linejoin="round"/>
<path d="M94.7796 146.974C84.6115 140.486 75.628 131.764 63.934 128.326C54.8849 125.666 44.5465 126.292 36.7373 121.189C55.6075 124.179 74.4769 127.169 93.3471 130.16C99.7416 131.173 106.264 132.226 111.989 135.123C117.912 138.12 128.316 140.856 133.818 144.508C139.505 148.283 152.947 153.723 155.005 159.13C147.487 163.271 132.088 160.408 123.834 158.687C113.502 156.535 103.573 152.584 94.7796 146.974Z" stroke="black" stroke-width="0.686458" stroke-miterlimit="10" stroke-linecap="round" stroke-linejoin="round"/>
<path d="M175.993 124.235C178.209 107.287 182.097 90.1351 179.089 73.2983C189.758 80.7169 194.968 93.6595 195.646 106.226C196.168 115.892 194.328 125.466 191.993 134.83C190.852 139.407 189.532 143.941 188.312 148.498C187.604 151.142 180.671 164.059 178.573 165.62C166.855 174.339 175.467 128.259 175.993 124.235Z" stroke="black" stroke-width="0.686458" stroke-miterlimit="10" stroke-linecap="round" stroke-linejoin="round"/>
<path d="M122.979 71.0927C130.274 78.0568 137.473 85.9227 139.377 95.5926C140.032 98.9179 140.026 102.326 139.958 105.708C139.775 114.891 139.155 124.067 138.101 133.197C137.845 135.413 138.959 138.586 139.619 140.725" stroke="black" stroke-width="0.686458" stroke-miterlimit="10" stroke-linecap="round" stroke-linejoin="round"/>
<path d="M90.3462 138.196C106.589 147.732 128.632 144.612 144.47 154.746C147.23 156.512 151.834 158.173 155.004 159.128C156.787 159.666 156.649 160.301 158.435 160.827C162.363 161.984 166.46 164.92 171.985 167.502" stroke="black" stroke-width="0.686458" stroke-miterlimit="10" stroke-linecap="round" stroke-linejoin="round"/>
<path d="M180.799 174.77C180.193 172.295 179.588 169.819 178.983 167.344C178.369 164.831 177.75 162.271 177.947 159.697C178.301 155.081 181.201 151.035 182.651 146.618C183.852 142.958 184.043 139.077 184.226 135.246C184.877 121.585 185.527 107.924 186.178 94.2628" stroke="black" stroke-width="0.686458" stroke-miterlimit="10" stroke-linecap="round" stroke-linejoin="round"/>
</svg>
