<svg width="317" height="163" viewBox="0 0 317 163" fill="none" xmlns="http://www.w3.org/2000/svg">
<path d="M141.924 88.6918C121.367 77.8567 99.6112 68.9286 77.0969 62.0894C90.3907 59.9813 103.992 63.8825 116.111 69.3089C128.23 74.7354 139.507 81.7242 151.97 86.4525C165.952 91.7568 181.266 94.0921 196.37 93.2224C187.323 93.7317 178.864 99.8316 169.603 99.5721C159.889 99.301 150.029 92.9643 141.924 88.6918Z" fill="#918676"/>
<path d="M142.206 126.626C135.668 132.429 129.373 138.908 120.931 142.034C114.625 144.37 107.674 144.616 100.915 145.318C85.8337 146.885 71.0579 150.884 57.4724 157.078C78.7844 142.207 107.836 127.739 134.452 114.887C141.97 111.258 149.925 108.46 157.858 105.671C165.705 102.913 193.507 91.7541 205.448 90.8096C188.42 101.012 157.309 113.22 142.206 126.626Z" fill="#918676"/>
<path d="M210.263 84.4077C200.844 81.8891 192.357 77.1525 183.744 72.8477C164.948 63.4515 145.041 55.9148 124.485 50.4122C141.252 42.1932 159.861 33.7079 178.452 37.386C187.803 39.236 196.146 44.057 203.567 49.5829C209.228 53.7985 214.48 58.4733 219.244 63.5352C223.118 67.6512 235.304 75.5551 232.696 81.9049C229.792 88.9774 216.119 85.9735 210.263 84.4077Z" fill="#918676"/>
<path d="M0 100.129C18.3503 95.1942 35.7112 86.1254 54.8159 85.3058C65.6699 84.8403 76.4197 87.0926 87.0074 89.3305C93.0022 90.5977 133.129 95.9637 127.861 103.563C125.128 107.504 104.631 110.717 99.6202 112.249C90.3299 115.09 18.0585 104.152 0 100.129Z" fill="#918676"/>
<path d="M42.561 99.8988C70.7078 100.123 98.8546 100.346 127.001 100.569C141.633 100.685 156.342 100.797 170.799 98.7304C184.086 96.8317 196.97 93.12 209.856 89.6005C244.814 80.0526 280.219 71.8267 316.04 65.5017" stroke="black" stroke-width="0.686458" stroke-miterlimit="10" stroke-linecap="round" stroke-linejoin="round"/>
<path d="M207.005 127.531C193.16 132.288 177.846 134.47 166.073 142.661C156.963 148.999 150.334 158.718 139.577 162.29C155.937 147.344 172.297 132.399 188.657 117.453C194.201 112.389 199.876 107.236 206.892 104.047C214.149 100.747 224.291 93.2405 231.928 90.7624C239.822 88.2012 254.889 79.7921 261.913 81.5968C260.893 91.1557 247.107 103.066 239.526 109.326C230.036 117.16 218.976 123.417 207.005 127.531Z" fill="#918676"/>
<path d="M240.694 39.1365C224.776 25.6868 209.824 10.5963 190.344 1.92017C205.501 -2.65782 222.514 1.406 235.95 9.29135C246.286 15.3569 254.864 23.4832 262.877 31.9122C266.794 36.0323 270.541 40.2836 274.384 44.4621C276.613 46.886 285.055 61.8508 285.189 64.7929C285.935 81.2233 244.474 42.3306 240.694 39.1365Z" fill="#918676"/>
<path d="M148.594 50.8817C160.908 49.0296 174.085 47.8743 185.396 52.6987C189.286 54.3579 192.796 56.6672 196.236 59.0142C205.577 65.3872 214.603 72.1468 223.278 79.2667C225.383 80.9945 229.439 82.1382 232.109 82.9908" stroke="black" stroke-width="0.686458" stroke-miterlimit="10" stroke-linecap="round" stroke-linejoin="round"/>
<path d="M194.835 125.585C216.096 117.426 228.389 95.4968 249.983 88.1071C253.745 86.8193 258.697 83.801 261.913 81.5974C263.721 80.3584 264.28 80.9109 266.079 79.6609C270.036 76.911 275.945 75.212 282.495 71.9897" stroke="black" stroke-width="0.686458" stroke-miterlimit="10" stroke-linecap="round" stroke-linejoin="round"/>
<path d="M296.191 68.9775C293.213 67.8483 290.234 66.719 287.256 65.5898C284.232 64.4434 281.157 63.2696 278.641 61.3523C274.13 57.9138 271.998 52.5704 268.463 48.2815C265.533 44.7277 261.666 41.9317 257.844 39.1783C244.214 29.3586 230.583 19.5388 216.954 9.71899" stroke="black" stroke-width="0.686458" stroke-miterlimit="10" stroke-linecap="round" stroke-linejoin="round"/>
</svg>
