<svg width="316" height="169" viewBox="0 0 316 169" fill="none" xmlns="http://www.w3.org/2000/svg">
<path d="M141.822 91.8796C121.361 80.655 99.7067 71.406 77.2974 64.321C90.5292 62.1371 104.067 66.1785 116.13 71.8C128.193 77.4215 139.416 84.6615 151.822 89.5598C165.738 95.0547 180.981 97.474 196.015 96.573C187.01 97.1007 178.591 103.42 169.372 103.151C159.704 102.87 149.89 96.3056 141.822 91.8796Z" fill="#918676"/>
<path d="M142.103 131.178C135.596 137.189 129.33 143.901 120.928 147.14C114.651 149.56 107.732 149.814 101.004 150.542C85.9933 152.165 71.2864 156.308 57.7642 162.723C78.9769 147.318 107.893 132.33 134.385 119.017C141.868 115.257 149.786 112.358 157.682 109.47C165.492 106.612 193.165 95.0521 205.05 94.0736C188.102 104.642 157.136 117.29 142.103 131.178Z" fill="#918676"/>
<path d="M209.843 87.4416C200.468 84.8324 192.02 79.9256 183.448 75.4661C164.739 65.7321 144.925 57.9246 124.465 52.2242C141.154 43.7098 159.676 34.9195 178.18 38.7297C187.487 40.6462 195.792 45.6405 203.178 51.3651C208.812 55.7322 214.04 60.575 218.782 65.8189C222.638 70.0828 234.767 78.2708 232.171 84.8488C229.281 92.1756 215.671 89.0636 209.843 87.4416Z" fill="#918676"/>
<path d="M0.55957 103.728C18.8243 98.6158 36.1043 89.221 55.1201 88.3719C65.9235 87.8898 76.6232 90.223 87.1616 92.5413C93.1284 93.8541 133.068 99.413 127.825 107.285C125.104 111.369 104.703 114.697 99.7156 116.284C90.4686 119.227 18.5339 107.895 0.55957 103.728Z" fill="#918676"/>
<path d="M42.9224 103.49C70.938 103.721 98.9536 103.953 126.969 104.184C141.533 104.305 156.173 104.42 170.563 102.279C183.788 100.312 196.611 96.4672 209.438 92.8212C244.233 82.9301 279.473 74.4086 315.127 67.8562" stroke="black" stroke-width="0.686458" stroke-miterlimit="10" stroke-linecap="round" stroke-linejoin="round"/>
<path d="M206.6 132.115C192.82 137.043 177.577 139.303 165.859 147.789C156.792 154.354 150.193 164.423 139.486 168.123C155.77 152.641 172.054 137.158 188.338 121.675C193.856 116.428 199.505 111.091 206.487 107.787C213.711 104.368 223.806 96.592 231.407 94.0248C239.264 91.3716 254.261 82.6602 261.253 84.5298C260.237 94.4323 246.516 106.771 238.97 113.255C229.524 121.371 218.516 127.853 206.6 132.115Z" fill="#918676"/>
<path d="M240.132 40.5432C224.288 26.61 209.406 10.9772 190.017 1.98919C205.103 -2.75335 222.036 1.45653 235.41 9.62531C245.698 15.9089 254.236 24.3273 262.212 33.0592C266.11 37.3275 269.84 41.7315 273.665 46.0602C275.883 48.5712 284.286 64.0739 284.42 67.1218C285.162 84.1427 243.894 43.8521 240.132 40.5432Z" fill="#918676"/>
<path d="M148.461 52.7105C160.718 50.7918 173.833 49.595 185.092 54.5928C188.963 56.3116 192.457 58.7039 195.881 61.1353C205.179 67.7374 214.163 74.7399 222.797 82.1158C224.893 83.9057 228.93 85.0904 231.587 85.9737" stroke="black" stroke-width="0.686458" stroke-miterlimit="10" stroke-linecap="round" stroke-linejoin="round"/>
<path d="M194.487 130.099C215.649 121.647 227.884 98.9292 249.378 91.2738C253.123 89.9397 258.051 86.8129 261.252 84.5302C263.052 83.2466 263.609 83.819 265.399 82.524C269.338 79.6752 275.22 77.9152 281.739 74.5771" stroke="black" stroke-width="0.686458" stroke-miterlimit="10" stroke-linecap="round" stroke-linejoin="round"/>
<path d="M295.371 71.4568C292.406 70.287 289.441 69.1172 286.477 67.9474C283.467 66.7598 280.406 65.5438 277.902 63.5576C273.412 59.9955 271.291 54.46 267.772 50.0169C264.856 46.3354 261.007 43.4389 257.202 40.5866C243.636 30.4138 230.069 20.2411 216.502 10.0684" stroke="black" stroke-width="0.686458" stroke-miterlimit="10" stroke-linecap="round" stroke-linejoin="round"/>
</svg>
