<svg width="268" height="171" viewBox="0 0 268 171" fill="none" xmlns="http://www.w3.org/2000/svg">
<path d="M200.65 89.1279C203.445 90.1221 205.985 91.6617 208.501 93.1899C227.896 104.971 247.291 116.753 266.686 128.534C251.125 126.77 235.565 125.007 220.004 123.244C215.884 122.777 211.715 122.299 207.842 120.883C198.969 117.639 192.658 109.882 183.994 106.16C179.747 104.335 175.088 103.55 170.749 101.93C168.208 100.983 160.631 97.6707 161.852 93.9629C162.811 91.0515 170.375 91.2329 173.169 90.6647C182.115 88.847 191.651 85.9279 200.65 89.1279Z" stroke="black" stroke-width="0.686458" stroke-miterlimit="10" stroke-linecap="round" stroke-linejoin="round"/>
<path d="M149.088 107.22C156.604 110.534 163.454 115.053 170.261 119.549C183.477 128.278 196.693 137.008 209.908 145.736C196.547 137.758 182.911 129.667 167.636 125.937C155.87 123.065 143.135 122.769 132.586 117.033C123.827 112.271 117.874 105.311 110.501 99.0132C124.204 99.8701 136.584 101.708 149.088 107.22Z" stroke="black" stroke-width="0.686458" stroke-miterlimit="10" stroke-linecap="round" stroke-linejoin="round"/>
<path d="M89.5871 70.3808C94.2393 65.7861 99.6149 61.9155 105.083 58.2261C111.233 54.0766 117.604 50.0943 124.664 47.5812C137.215 43.1138 151.021 43.5782 164.408 44.1016C179.478 44.6911 194.549 45.2807 209.619 45.8702C193.946 44.2431 178.022 47.9538 163.815 54.4649C153.744 59.0809 144.441 65.0608 135.178 71.0186C125.489 77.251 115.8 83.4826 106.111 89.715C100.943 93.0388 81.0672 106.312 74.5106 100.231C68.6431 94.7903 85.4611 74.4563 89.5871 70.3808Z" stroke="black" stroke-width="0.686458" stroke-miterlimit="10" stroke-linecap="round" stroke-linejoin="round"/>
<path d="M81.3621 108.928C83.1686 109.277 85.0192 109.643 86.5809 110.576C88.065 111.464 89.1795 112.799 90.2955 114.086C100.693 126.072 113.785 135.925 128.432 142.789C130.229 143.631 132.088 144.454 133.512 145.796C137.811 149.847 137.137 157.547 142.269 160.593C124.788 157.921 107.056 155.178 90.9741 148.126C87.0438 146.402 83.1896 144.399 80.0079 141.605C75.6215 137.754 72.7534 132.624 69.9675 127.6C67.869 123.814 46.4705 108.195 49.0586 104.095C51.8132 99.7317 77.0988 108.272 81.3621 108.928Z" stroke="black" stroke-width="0.686458" stroke-miterlimit="10" stroke-linecap="round" stroke-linejoin="round"/>
<path d="M59.4173 73.6346C64.7227 67.0474 70.1976 60.0982 71.6264 51.9074C72.1452 48.9306 72.1102 45.8606 72.9634 42.9549C74.1601 38.8809 76.9938 35.4603 79.6111 32.0426C86.8201 22.6294 92.8324 12.3862 97.4772 1.60759C95.6908 0.636895 93.5461 2.0165 92.0083 3.31858C77.6433 15.4804 62.5661 28.7188 57.7735 46.448C56.7553 50.2135 56.2238 54.1325 54.5628 57.6839C51.962 63.2457 46.8872 67.3304 42.8524 72.0531C39.6357 75.8178 17.6937 99.7246 26.0889 102.522C32.9127 104.794 55.8072 78.1169 59.4173 73.6346Z" stroke="black" stroke-width="0.686458" stroke-miterlimit="10" stroke-linecap="round" stroke-linejoin="round"/>
<path d="M52.4758 134.224C62.196 149.249 77.842 159.75 93.055 169.822C85.9065 169.295 78.8207 167.999 71.9752 165.965C65.0305 163.902 58.197 160.996 52.8871 156.258C44.3896 148.677 40.8392 137.499 36.941 127.049C34.6298 120.854 16.8801 105.295 14.731 99.3895C26.8676 100.855 46.9613 125.701 52.4758 134.224Z" stroke="black" stroke-width="0.686458" stroke-miterlimit="10" stroke-linecap="round" stroke-linejoin="round"/>
<path d="M104.086 142.668C95.3588 138.816 87.5041 133.181 81.2058 126.255C76.9343 121.557 73.3697 116.277 68.7638 111.875C64.1579 107.473 58.1612 103.909 51.6367 103.888" stroke="black" stroke-width="0.686458" stroke-miterlimit="10" stroke-linecap="round" stroke-linejoin="round"/>
<path d="M146.632 53.6049C126.815 58.8367 105.691 64.8557 92.696 80.0377C87.1002 86.5751 80.8975 96.2543 74.3716 101.956" stroke="black" stroke-width="0.686458" stroke-miterlimit="10" stroke-linecap="round" stroke-linejoin="round"/>
<path d="M162.866 121.176C153.49 119.652 143.838 118.031 135.801 113.188C131.727 110.734 128.208 107.528 124.216 104.955C117.625 100.705 107.184 98.0959 99.23 97.8214" stroke="black" stroke-width="0.686458" stroke-miterlimit="10" stroke-linecap="round" stroke-linejoin="round"/>
<path d="M69.9728 39.7545C67.7519 42.2065 63.1482 63.4857 53.3227 70.287C50.1105 72.5107 40.1394 82.7723 38.0612 85.9952C34.9423 90.8309 29.881 98.9805 23.7163 102.077" stroke="black" stroke-width="0.686458" stroke-miterlimit="10" stroke-linecap="round" stroke-linejoin="round"/>
<path d="M61.1953 154.755C51.6146 144.627 43.7651 133.016 38.0491 120.516C37.1854 118.627 36.3561 116.695 35.0556 115.048C33.6828 113.31 31.8449 111.966 30.0317 110.644C25.4429 107.3 20.8541 103.956 16.2661 100.612" stroke="black" stroke-width="0.686458" stroke-miterlimit="10" stroke-linecap="round" stroke-linejoin="round"/>
<path d="M226.466 112.776C215.636 103.854 201.125 100.361 187.115 97.5481C175.057 95.1267 162.877 92.9962 150.561 92.5887C125.224 91.751 100.338 98.2002 75.2736 101.828C50.2096 105.457 23.225 105.961 1.02539 94.2975" stroke="black" stroke-width="0.686458" stroke-miterlimit="10" stroke-linecap="round" stroke-linejoin="round"/>
</svg>
