<svg width="197" height="181" viewBox="0 0 197 181" fill="none" xmlns="http://www.w3.org/2000/svg">
<path d="M92.3913 83.2721C90.4413 65.3082 86.5023 47.5248 80.6538 30.2844C88.6466 37.4888 92.35 47.7925 94.2093 57.9178C96.0685 68.0431 96.3663 78.4031 98.9081 88.4034C101.76 99.6215 107.448 110.227 115.404 119.151C110.648 113.8 102.048 111.52 97.7553 105.664C93.2538 99.524 93.1601 90.3557 92.3913 83.2721Z" stroke="black" stroke-width="0.686458" stroke-miterlimit="10" stroke-linecap="round" stroke-linejoin="round"/>
<path d="M64.5122 101.811C57.0617 100.575 49.2295 99.8169 42.8327 96.108C38.0545 93.3375 34.5077 89.1556 30.7165 85.3135C22.2587 76.7416 12.1518 69.5359 1 64.1287C22.3 70.1153 47.05 81.0849 69.4277 91.3309C75.7472 94.2244 81.6655 97.7926 87.5658 101.351C93.4015 104.871 115.103 116.669 121.582 123.6C105.804 118.004 81.7247 104.665 64.5122 101.811Z" stroke="black" stroke-width="0.686458" stroke-miterlimit="10" stroke-linecap="round" stroke-linejoin="round"/>
<path d="M128.64 123.48C125.94 116.434 125.33 108.889 124.34 101.477C122.18 85.2983 118.109 69.3333 112.22 53.9512C126.408 60.3462 141.684 67.7517 147.968 81.0347C151.128 87.7153 151.607 95.2114 151.118 102.478C150.744 108.021 149.835 113.534 148.403 118.933C147.238 123.322 147.3 134.688 141.348 136.149C134.72 137.775 130.32 127.861 128.64 123.48Z" stroke="black" stroke-width="0.686458" stroke-miterlimit="10" stroke-linecap="round" stroke-linejoin="round"/>
<path d="M15.2361 1C27.7648 9.96446 42.8669 16.3149 52.7219 27.7389C58.3206 34.2294 61.8613 41.9706 65.3338 49.604C67.3003 53.9266 82.7631 81.3513 74.6009 81.7701C70.3664 81.9877 58.0708 70.8609 54.5136 68.5029C47.9173 64.1308 21.0073 14.1203 15.2361 1Z" stroke="black" stroke-width="0.686458" stroke-miterlimit="10" stroke-linecap="round" stroke-linejoin="round"/>
<path d="M36.0105 27.2208C49.4722 44.7434 62.9332 62.2659 76.395 79.7891C83.3925 88.8977 90.432 98.0523 98.9565 105.997C106.792 113.299 115.77 119.473 124.608 125.741C148.584 142.748 171.799 160.67 193.813 179.771" stroke="black" stroke-width="0.686458" stroke-miterlimit="10" stroke-linecap="round" stroke-linejoin="round"/>
<path d="M95.2137 142.341C84.998 136.079 75.9724 127.659 64.2237 124.341C55.1322 121.773 44.7454 122.377 36.8997 117.451C55.8582 120.338 74.8159 123.224 93.7744 126.111C100.199 127.089 106.752 128.106 112.503 130.902C118.454 133.795 128.907 136.436 134.435 139.962C140.148 143.605 153.653 148.857 155.721 154.076C148.167 158.073 132.696 155.309 124.404 153.649C114.024 151.571 104.048 147.758 95.2137 142.341Z" stroke="black" stroke-width="0.686458" stroke-miterlimit="10" stroke-linecap="round" stroke-linejoin="round"/>
<path d="M176.807 120.391C179.034 104.032 182.94 87.4751 179.918 71.2225C190.637 78.3837 195.871 90.8772 196.552 103.008C197.077 112.339 195.228 121.58 192.882 130.619C191.735 135.037 190.41 139.414 189.184 143.813C188.473 146.366 181.508 158.835 179.399 160.341C167.627 168.757 176.279 124.276 176.807 120.391Z" stroke="black" stroke-width="0.686458" stroke-miterlimit="10" stroke-linecap="round" stroke-linejoin="round"/>
<path d="M123.545 69.0935C130.874 75.816 138.107 83.4089 140.02 92.7434C140.678 95.9532 140.672 99.2428 140.604 102.508C140.419 111.372 139.797 120.23 138.738 129.043C138.481 131.182 139.6 134.245 140.263 136.31" stroke="black" stroke-width="0.686458" stroke-miterlimit="10" stroke-linecap="round" stroke-linejoin="round"/>
<path d="M90.7598 133.869C107.078 143.073 129.225 140.062 145.137 149.844C147.91 151.549 152.536 153.152 155.72 154.074C157.511 154.593 157.373 155.206 159.167 155.714C163.114 156.831 167.23 159.665 172.781 162.157" stroke="black" stroke-width="0.686458" stroke-miterlimit="10" stroke-linecap="round" stroke-linejoin="round"/>
<path d="M181.636 169.174C181.027 166.784 180.419 164.395 179.812 162.005C179.194 159.579 178.573 157.108 178.771 154.624C179.126 150.168 182.04 146.262 183.496 141.998C184.703 138.465 184.895 134.719 185.079 131.021C185.733 117.834 186.386 104.647 187.04 91.4597" stroke="black" stroke-width="0.686458" stroke-miterlimit="10" stroke-linecap="round" stroke-linejoin="round"/>
</svg>
