<svg width="15" height="14" viewBox="0 0 15 14" fill="none" xmlns="http://www.w3.org/2000/svg">
<path fill-rule="evenodd" clip-rule="evenodd" d="M13.4559 9.48057L11.4928 9.25644C11.0214 9.20234 10.5577 9.36464 10.2253 9.69697L8.80325 11.1191C6.61604 10.0061 4.82298 8.2208 3.71005 6.02585L5.13986 4.59605C5.47219 4.26371 5.63449 3.79999 5.58039 3.32854L5.35626 1.38092C5.26352 0.600319 4.60658 0.0129395 3.81825 0.0129395H2.48119C1.60785 0.0129395 0.881356 0.739435 0.935456 1.61278C1.34508 8.21307 6.62376 13.484 13.2163 13.8936C14.0897 13.9477 14.8162 13.2213 14.8162 12.3479V11.0108C14.8239 10.2303 14.2365 9.57332 13.4559 9.48057Z" fill="#3D2219"/>
</svg>
