<svg width="15" height="20" viewBox="0 0 15 20" fill="none" xmlns="http://www.w3.org/2000/svg">
<path fill-rule="evenodd" clip-rule="evenodd" d="M0.858398 7.4519C0.858398 3.5819 3.9884 0.451904 7.8584 0.451904C11.7284 0.451904 14.8584 3.5819 14.8584 7.4519C14.8584 11.6219 10.4384 17.3719 8.6284 19.5619C8.2284 20.0419 7.4984 20.0419 7.0984 19.5619C5.2784 17.3719 0.858398 11.6219 0.858398 7.4519ZM5.35493 7.45147C5.35493 8.83147 6.47493 9.95147 7.85493 9.95147C9.23493 9.95147 10.3549 8.83147 10.3549 7.45147C10.3549 6.07147 9.23493 4.95147 7.85493 4.95147C6.47493 4.95147 5.35493 6.07147 5.35493 7.45147Z" fill="#3D2219"/>
</svg>
