<svg width="4" height="6" viewBox="0 0 4 6" fill="none" xmlns="http://www.w3.org/2000/svg">
<path d="M2.00632 5.45192C3.03891 5.45192 3.70774 4.94443 3.70774 4.12011C3.70774 3.42488 3.24132 3.00539 2.03272 2.70911C1.11454 2.48323 0.809454 2.24268 0.809454 1.84959C0.809454 1.39784 1.21428 1.11329 1.89191 1.11329C2.58715 1.11329 3.01837 1.46531 3.03304 2.03147H3.61974C3.61387 1.11329 2.9509 0.544189 1.89191 0.544189C0.856389 0.544189 0.202221 1.05168 0.202221 1.84959C0.202221 2.58003 0.721449 2.98485 1.88311 3.2606C2.73676 3.46595 3.09464 3.70063 3.09464 4.14065C3.09464 4.60707 2.67515 4.88282 2.00632 4.88282C1.27001 4.88282 0.75665 4.51907 0.741983 3.91184H0.146484C0.155285 4.83589 0.876924 5.45192 2.00632 5.45192Z" fill="black"/>
</svg>
