<svg width="9" height="10" viewBox="0 0 9 10" fill="none" xmlns="http://www.w3.org/2000/svg">
<path d="M6.52043 6.30685C7.40634 5.84336 7.91091 4.88118 7.91091 3.57871C7.91091 2.03569 7.2186 0.68042 4.6782 0.68042H0.935065C0.776657 0.68042 0.694519 0.762557 0.694519 0.920965V9.45156C0.694519 9.60996 0.776657 9.6921 0.935065 9.6921H2.8653C3.02371 9.6921 3.10585 9.60996 3.10585 9.45156V6.6178H4.12084L5.56998 9.51023C5.62865 9.63343 5.71665 9.6921 5.84573 9.6921H8.03411C8.21599 9.6921 8.28639 9.57476 8.20425 9.40462L6.52043 6.30685ZM4.26164 2.72213C4.74274 2.72213 5.51131 2.72213 5.51131 3.60218C5.51131 4.5761 4.59606 4.5761 4.26164 4.5761H3.10585V2.72213H4.26164Z" fill="black"/>
</svg>
