<svg width="4" height="6" viewBox="0 0 4 6" fill="none" xmlns="http://www.w3.org/2000/svg">
<path d="M0.201355 5.27591H2.11986C3.07324 5.27591 3.66874 4.76842 3.66874 3.94997C3.66874 3.41608 3.40473 3.01712 2.91777 2.82351C3.30499 2.62697 3.5338 2.26028 3.5338 1.80266C3.5338 1.03702 2.9383 0.544189 2.03185 0.544189H0.201355V5.27591ZM0.796854 4.72148V3.13446H2.09932C2.71536 3.13446 3.06151 3.42488 3.06151 3.92357C3.06151 4.43106 2.71536 4.72148 2.10812 4.72148H0.796854ZM0.796854 2.59177V1.09862H2.02012C2.59508 1.09862 2.92657 1.3685 2.92657 1.84959C2.92657 2.32188 2.60095 2.59177 2.02012 2.59177H0.796854Z" fill="black"/>
</svg>
